<?xml version="1.0" encoding="UTF-8"?>
<svg width="65px" height="65px" version="1.1" viewBox="0 0 700 700" xmlns="http://www.w3.org/2000/svg">
    <g>
        <path d="m315 175h70c19.328 0 35 19.328 35 35v245c0 19.328-15.672 35-35 35h-70c-19.328 0-35-19.328-35-35v-245c0-19.328 15.672-35 35-35z" fill="rgb(8, 215, 247)"/>
        <path d="m140 280h70c19.328 0 35 19.328 35 35v140c0 19.328-15.672 35-35 35h-70c-19.328 0-35-19.328-35-35v-140c0-19.328 15.672-35 35-35z" fill="rgb(8, 215, 247)"/>
    </g>
</svg>